<?xml version="1.0" encoding="UTF-8"?>
<svg width="88px" height="126px" viewBox="0 0 88 126" version="1.1" xmlns="http://www.w3.org/2000/svg" xmlns:xlink="http://www.w3.org/1999/xlink">
    <!-- Generator: Sketch 55.1 (78136) - https://sketchapp.com -->
    <title>lock_circle_close_round [#703]</title>
    <desc>Created with Sketch.</desc>
    <g id="Page-1" stroke="none" stroke-width="1" fill="none" fill-rule="evenodd">
        <g id="Login-02_new_2" transform="translate(-1211.000000, -132.000000)" fill="#F0F0F0">
            <g id="Box" transform="translate(94.000000, 96.000000)">
                <path d="M1161.5,111 C1165.088,111 1168,113.912 1168,117.5 C1168,121.088 1165.088,124 1161.5,124 C1157.912,124 1155,121.088 1155,117.5 C1155,113.912 1157.912,111 1161.5,111 L1161.5,111 Z M1161,137 C1171.47533,137 1180,128.475333 1180,118 C1180,107.524667 1171.47533,99 1161,99 C1150.52467,99 1142,107.524667 1142,118 C1142,128.475333 1150.52467,137 1161,137 L1161,137 Z M1193,142.7 C1193,146.1776 1190.1776,149 1186.7,149 L1136.3,149 C1132.8224,149 1130,146.1776 1130,142.7 L1130,92.3 C1130,88.8224 1132.8224,86 1136.3,86 L1186.7,86 C1190.1776,86 1193,88.8224 1193,92.3 L1193,142.7 Z M1149,61.5 C1149,54.60625 1154.60625,49 1161.5,49 C1168.39375,49 1174,55.25 1174,61.5 L1174,74 L1149,74 L1149,61.5 Z M1186.14286,73.8020255 L1186.14286,61.2023149 C1186.14286,47.04654 1171.93086,32.8844652 1155.74514,36.6013798 C1143.81486,39.3418169 1135.85714,50.7508549 1135.85714,63.0166732 L1135.85714,73.8020255 L1129.57143,73.8020255 C1122.62571,73.8020255 1117,79.440396 1117,86.4017361 L1117,149.400289 C1117,156.361629 1122.62571,162 1129.57143,162 L1192.42857,162 C1199.37429,162 1205,156.361629 1205,149.400289 L1205,86.4017361 C1205,79.440396 1199.37429,73.8020255 1192.42857,73.8020255 L1186.14286,73.8020255 Z" id="lock_circle_close_round-[#703]"></path>
            </g>
        </g>
    </g>
</svg>